<svg width="1920" height="568" viewBox="0 0 1920 568" fill="none" xmlns="http://www.w3.org/2000/svg">
<rect y="440" width="40" height="8" fill="#0057B7"/>
<rect x="40" y="440" width="40" height="8" fill="#FFDD00"/>
<rect x="80" y="440" width="40" height="8" fill="#0057B7"/>
<rect x="120" y="440" width="40" height="8" fill="#FFDD00"/>
<rect x="160" y="440" width="40" height="8" fill="#0057B7"/>
<rect x="200" y="440" width="40" height="8" fill="#FFDD00"/>
<rect x="816" y="568" width="40" height="8" transform="rotate(-180 816 568)" fill="#0057B7"/>
<rect x="776" y="568" width="40" height="8" transform="rotate(-180 776 568)" fill="#FFDD00"/>
<rect x="736" y="568" width="40" height="8" transform="rotate(-180 736 568)" fill="#0057B7"/>
<rect x="696" y="568" width="40" height="8" transform="rotate(-180 696 568)" fill="#FFDD00"/>
<rect x="656" y="568" width="40" height="8" transform="rotate(-180 656 568)" fill="#0057B7"/>
<rect x="616" y="568" width="40" height="8" transform="rotate(-180 616 568)" fill="#FFDD00"/>
<rect x="1464" y="256" width="40" height="8" transform="rotate(-180 1464 256)" fill="#0057B7"/>
<rect x="1424" y="256" width="40" height="8" transform="rotate(-180 1424 256)" fill="#FFDD00"/>
<rect x="1384" y="256" width="40" height="8" transform="rotate(-180 1384 256)" fill="#0057B7"/>
<rect x="1344" y="256" width="40" height="8" transform="rotate(-180 1344 256)" fill="#FFDD00"/>
<rect x="1304" y="256" width="40" height="8" transform="rotate(-180 1304 256)" fill="#0057B7"/>
<rect x="1264" y="256" width="40" height="8" transform="rotate(-180 1264 256)" fill="#FFDD00"/>
<rect x="1224" y="256" width="40" height="8" transform="rotate(-180 1224 256)" fill="#0057B7"/>
<rect x="1184" y="256" width="40" height="8" transform="rotate(-180 1184 256)" fill="#FFDD00"/>
<rect x="1144" y="256" width="40" height="8" transform="rotate(-180 1144 256)" fill="#0057B7"/>
<rect x="1104" y="256" width="40" height="8" transform="rotate(-180 1104 256)" fill="#FFDD00"/>
<rect x="1064" y="256" width="40" height="8" transform="rotate(-180 1064 256)" fill="#0057B7"/>
<rect x="1024" y="256" width="40" height="8" transform="rotate(-180 1024 256)" fill="#FFDD00"/>
<rect x="984" y="256" width="40" height="8" transform="rotate(-180 984 256)" fill="#0057B7"/>
<rect x="944" y="256" width="40" height="8" transform="rotate(-180 944 256)" fill="#FFDD00"/>
<rect x="904" y="256" width="40" height="8" transform="rotate(-180 904 256)" fill="#0057B7"/>
<rect x="864" y="256" width="40" height="8" transform="rotate(-180 864 256)" fill="#FFDD00"/>
<rect x="1712" y="488" width="40" height="8" transform="rotate(-180 1712 488)" fill="#0057B7"/>
<rect x="1672" y="488" width="40" height="8" transform="rotate(-180 1672 488)" fill="#FFDD00"/>
<rect x="1632" y="488" width="40" height="8" transform="rotate(-180 1632 488)" fill="#0057B7"/>
<rect x="1592" y="488" width="40" height="8" transform="rotate(-180 1592 488)" fill="#FFDD00"/>
<rect x="1552" y="488" width="40" height="8" transform="rotate(-180 1552 488)" fill="#0057B7"/>
<rect x="1512" y="488" width="40" height="8" transform="rotate(-180 1512 488)" fill="#FFDD00"/>
<rect x="1952" y="8" width="40" height="8" transform="rotate(-180 1952 8)" fill="#0057B7"/>
<rect x="1912" y="8" width="40" height="8" transform="rotate(-180 1912 8)" fill="#FFDD00"/>
<rect x="1872" y="8" width="40" height="8" transform="rotate(-180 1872 8)" fill="#0057B7"/>
<rect x="1832" y="8" width="40" height="8" transform="rotate(-180 1832 8)" fill="#FFDD00"/>
<rect x="1792" y="8" width="40" height="8" transform="rotate(-180 1792 8)" fill="#0057B7"/>
<rect x="1752" y="8" width="40" height="8" transform="rotate(-180 1752 8)" fill="#FFDD00"/>
<rect x="240" y="448" width="40" height="8" transform="rotate(-90 240 448)" fill="#0057B7"/>
<rect x="240" y="408" width="40" height="8" transform="rotate(-90 240 408)" fill="#FFDD00"/>
<rect x="240" y="368" width="40" height="8" transform="rotate(-90 240 368)" fill="#0057B7"/>
<rect x="240" y="328" width="40" height="8" transform="rotate(-90 240 328)" fill="#FFDD00"/>
<rect x="240" y="288" width="40" height="8" transform="rotate(-90 240 288)" fill="#0057B7"/>
<rect x="240" y="248" width="40" height="8" transform="rotate(-90 240 248)" fill="#FFDD00"/>
<rect x="240" y="208" width="40" height="8" transform="rotate(-90 240 208)" fill="#0057B7"/>
<rect x="568" y="568" width="40" height="8" transform="rotate(-90 568 568)" fill="#0057B7"/>
<rect x="568" y="528" width="40" height="8" transform="rotate(-90 568 528)" fill="#FFDD00"/>
<rect x="568" y="488" width="40" height="8" transform="rotate(-90 568 488)" fill="#0057B7"/>
<rect x="568" y="448" width="40" height="8" transform="rotate(-90 568 448)" fill="#FFDD00"/>
<rect x="568" y="408" width="40" height="8" transform="rotate(-90 568 408)" fill="#0057B7"/>
<rect x="568" y="368" width="40" height="8" transform="rotate(-90 568 368)" fill="#FFDD00"/>
<rect x="568" y="328" width="40" height="8" transform="rotate(-90 568 328)" fill="#0057B7"/>
<rect x="568" y="288" width="40" height="8" transform="rotate(-90 568 288)" fill="#FFDD00"/>
<rect x="568" y="248" width="40" height="8" transform="rotate(-90 568 248)" fill="#0057B7"/>
<rect x="568" y="208" width="40" height="8" transform="rotate(-90 568 208)" fill="#FFDD00"/>
<rect x="824" y="248" width="40" height="8" transform="rotate(90 824 248)" fill="#0057B7"/>
<rect x="824" y="288" width="40" height="8" transform="rotate(90 824 288)" fill="#FFDD00"/>
<rect x="824" y="328" width="40" height="8" transform="rotate(90 824 328)" fill="#0057B7"/>
<rect x="824" y="368" width="40" height="8" transform="rotate(90 824 368)" fill="#FFDD00"/>
<rect x="824" y="408" width="40" height="8" transform="rotate(90 824 408)" fill="#0057B7"/>
<rect x="824" y="448" width="40" height="8" transform="rotate(90 824 448)" fill="#FFDD00"/>
<rect x="824" y="488" width="40" height="8" transform="rotate(90 824 488)" fill="#0057B7"/>
<rect x="824" y="528" width="40" height="8" transform="rotate(90 824 528)" fill="#FFDD00"/>
<rect x="1464" y="488" width="40" height="8" transform="rotate(-90 1464 488)" fill="#0057B7"/>
<rect x="1464" y="448" width="40" height="8" transform="rotate(-90 1464 448)" fill="#FFDD00"/>
<rect x="1464" y="408" width="40" height="8" transform="rotate(-90 1464 408)" fill="#0057B7"/>
<rect x="1464" y="368" width="40" height="8" transform="rotate(-90 1464 368)" fill="#FFDD00"/>
<rect x="1464" y="328" width="40" height="8" transform="rotate(-90 1464 328)" fill="#0057B7"/>
<rect x="1464" y="288" width="40" height="8" transform="rotate(-90 1464 288)" fill="#FFDD00"/>
<rect x="1720" y="8" width="40" height="8" transform="rotate(90 1720 8)" fill="#0057B7"/>
<rect x="1720" y="48" width="40" height="8" transform="rotate(90 1720 48)" fill="#FFDD00"/>
<rect x="1720" y="88" width="40" height="8" transform="rotate(90 1720 88)" fill="#0057B7"/>
<rect x="1720" y="128" width="40" height="8" transform="rotate(90 1720 128)" fill="#FFDD00"/>
<rect x="1720" y="168" width="40" height="8" transform="rotate(90 1720 168)" fill="#0057B7"/>
<rect x="1720" y="208" width="40" height="8" transform="rotate(90 1720 208)" fill="#FFDD00"/>
<rect x="1720" y="248" width="40" height="8" transform="rotate(90 1720 248)" fill="#0057B7"/>
<rect x="1720" y="288" width="40" height="8" transform="rotate(90 1720 288)" fill="#FFDD00"/>
<rect x="1720" y="328" width="40" height="8" transform="rotate(90 1720 328)" fill="#0057B7"/>
<rect x="1720" y="368" width="40" height="8" transform="rotate(90 1720 368)" fill="#FFDD00"/>
<rect x="1720" y="408" width="40" height="8" transform="rotate(90 1720 408)" fill="#0057B7"/>
<rect x="1720" y="448" width="40" height="8" transform="rotate(90 1720 448)" fill="#FFDD00"/>
<rect x="248" y="168" width="40" height="8" fill="#FFDD00"/>
<rect x="288" y="168" width="40" height="8" fill="#0057B7"/>
<rect x="328" y="168" width="40" height="8" fill="#FFDD00"/>
<rect x="368" y="168" width="40" height="8" fill="#0057B7"/>
<rect x="408" y="168" width="40" height="8" fill="#FFDD00"/>
<rect x="448" y="168" width="40" height="8" fill="#0057B7"/>
<rect x="488" y="168" width="40" height="8" fill="#FFDD00"/>
<rect x="528" y="168" width="40" height="8" fill="#0057B7"/>
</svg>
