<svg width="33" height="33" viewBox="0 0 33 33" fill="none" xmlns="http://www.w3.org/2000/svg">
<path d="M12.5 20C13.3284 20 14 19.3284 14 18.5C14 17.6716 13.3284 17 12.5 17C11.6716 17 11 17.6716 11 18.5C11 19.3284 11.6716 20 12.5 20Z" fill="#CAB7E1"/>
<path d="M20.5 20C21.3284 20 22 19.3284 22 18.5C22 17.6716 21.3284 17 20.5 17C19.6716 17 19 17.6716 19 18.5C19 19.3284 19.6716 20 20.5 20Z" fill="#CAB7E1"/>
<path d="M9.7998 10.5C11.9676 9.82057 14.2281 9.48319 16.4998 9.49999C18.7715 9.48319 21.032 9.82057 23.1998 10.5" stroke="#CAB7E1" stroke-width="2" stroke-linecap="round" stroke-linejoin="round"/>
<path d="M23.1998 22.5C21.032 23.1794 18.7715 23.5168 16.4998 23.5C14.2281 23.5168 11.9676 23.1794 9.7998 22.5" stroke="#CAB7E1" stroke-width="2" stroke-linecap="round" stroke-linejoin="round"/>
<path d="M19.8752 23.2625L21.3877 26.2625C21.485 26.4671 21.6505 26.6314 21.8558 26.7272C22.0611 26.823 22.2934 26.8443 22.5127 26.7875C25.5752 26.0375 28.2252 24.7375 30.1502 23.0625C30.2953 22.9344 30.4007 22.7675 30.4539 22.5814C30.5071 22.3953 30.5058 22.1979 30.4502 22.0125L26.2127 7.86249C26.1715 7.71768 26.0968 7.58457 25.9948 7.47385C25.8927 7.36313 25.7662 7.27789 25.6252 7.22499C24.428 6.73383 23.1899 6.34901 21.9252 6.07499C21.6822 6.02176 21.428 6.05988 21.2113 6.18208C20.9946 6.30427 20.8304 6.50199 20.7502 6.73749L19.7627 9.72499" stroke="#CAB7E1" stroke-width="2" stroke-linecap="round" stroke-linejoin="round"/>
<path d="M13.1255 23.2625L11.613 26.2625C11.5156 26.4671 11.3501 26.6314 11.1448 26.7272C10.9395 26.823 10.7073 26.8443 10.488 26.7875C7.42546 26.0375 4.77546 24.7375 2.85046 23.0625C2.70533 22.9344 2.59994 22.7675 2.54677 22.5814C2.4936 22.3953 2.49488 22.1979 2.55046 22.0125L6.78796 7.86249C6.8292 7.71768 6.90384 7.58457 7.00587 7.47385C7.10791 7.36313 7.23449 7.27789 7.37546 7.22499C8.57266 6.73383 9.81077 6.34901 11.0755 6.07499C11.3185 6.02176 11.5726 6.05988 11.7893 6.18208C12.0061 6.30427 12.1702 6.50199 12.2505 6.73749L13.238 9.72499" stroke="#CAB7E1" stroke-width="2" stroke-linecap="round" stroke-linejoin="round"/>
<path d="M12.5 20C13.3284 20 14 19.3284 14 18.5C14 17.6716 13.3284 17 12.5 17C11.6716 17 11 17.6716 11 18.5C11 19.3284 11.6716 20 12.5 20Z" fill="#CAB7E1"/>
<path d="M20.5 20C21.3284 20 22 19.3284 22 18.5C22 17.6716 21.3284 17 20.5 17C19.6716 17 19 17.6716 19 18.5C19 19.3284 19.6716 20 20.5 20Z" fill="#CAB7E1"/>
<path d="M9.7998 10.5C11.9676 9.82057 14.2281 9.48319 16.4998 9.49999C18.7715 9.48319 21.032 9.82057 23.1998 10.5" stroke="#CAB7E1" stroke-width="2" stroke-linecap="round" stroke-linejoin="round"/>
<path d="M23.1998 22.5C21.032 23.1794 18.7715 23.5168 16.4998 23.5C14.2281 23.5168 11.9676 23.1794 9.7998 22.5" stroke="#CAB7E1" stroke-width="2" stroke-linecap="round" stroke-linejoin="round"/>
<path d="M19.8752 23.2625L21.3877 26.2625C21.485 26.4671 21.6505 26.6314 21.8558 26.7272C22.0611 26.823 22.2934 26.8443 22.5127 26.7875C25.5752 26.0375 28.2252 24.7375 30.1502 23.0625C30.2953 22.9344 30.4007 22.7675 30.4539 22.5814C30.5071 22.3953 30.5058 22.1979 30.4502 22.0125L26.2127 7.86249C26.1715 7.71768 26.0968 7.58457 25.9948 7.47385C25.8927 7.36313 25.7662 7.27789 25.6252 7.22499C24.428 6.73383 23.1899 6.34901 21.9252 6.07499C21.6822 6.02176 21.428 6.05988 21.2113 6.18208C20.9946 6.30427 20.8304 6.50199 20.7502 6.73749L19.7627 9.72499" stroke="#CAB7E1" stroke-width="2" stroke-linecap="round" stroke-linejoin="round"/>
<path d="M13.1255 23.2625L11.613 26.2625C11.5156 26.4671 11.3501 26.6314 11.1448 26.7272C10.9395 26.823 10.7073 26.8443 10.488 26.7875C7.42546 26.0375 4.77546 24.7375 2.85046 23.0625C2.70533 22.9344 2.59994 22.7675 2.54677 22.5814C2.4936 22.3953 2.49488 22.1979 2.55046 22.0125L6.78796 7.86249C6.8292 7.71768 6.90384 7.58457 7.00587 7.47385C7.10791 7.36313 7.23449 7.27789 7.37546 7.22499C8.57266 6.73383 9.81077 6.34901 11.0755 6.07499C11.3185 6.02176 11.5726 6.05988 11.7893 6.18208C12.0061 6.30427 12.1702 6.50199 12.2505 6.73749L13.238 9.72499" stroke="#CAB7E1" stroke-width="2" stroke-linecap="round" stroke-linejoin="round"/>
</svg>
