<svg width="33" height="33" viewBox="0 0 33 33" fill="none" xmlns="http://www.w3.org/2000/svg">
<path d="M12.5 16.5H20.5" stroke="#CAB7E1" stroke-width="2" stroke-linecap="round" stroke-linejoin="round"/>
<path d="M12.5 20.5H20.5" stroke="#CAB7E1" stroke-width="2" stroke-linecap="round" stroke-linejoin="round"/>
<path d="M7.5 5.5H25.5C25.7652 5.5 26.0196 5.60536 26.2071 5.79289C26.3946 5.98043 26.5 6.23478 26.5 6.5V25.5C26.5 26.2956 26.1839 27.0587 25.6213 27.6213C25.0587 28.1839 24.2956 28.5 23.5 28.5H9.5C8.70435 28.5 7.94129 28.1839 7.37868 27.6213C6.81607 27.0587 6.5 26.2956 6.5 25.5V6.5C6.5 6.23478 6.60536 5.98043 6.79289 5.79289C6.98043 5.60536 7.23478 5.5 7.5 5.5V5.5Z" stroke="#CAB7E1" stroke-width="2" stroke-linecap="round" stroke-linejoin="round"/>
<path d="M10.5 3.5V7.5" stroke="#CAB7E1" stroke-width="2" stroke-linecap="round" stroke-linejoin="round"/>
<path d="M16.5 3.5V7.5" stroke="#CAB7E1" stroke-width="2" stroke-linecap="round" stroke-linejoin="round"/>
<path d="M22.5 3.5V7.5" stroke="#CAB7E1" stroke-width="2" stroke-linecap="round" stroke-linejoin="round"/>
</svg>
