<svg width="33" height="33" viewBox="0 0 33 33" fill="none" xmlns="http://www.w3.org/2000/svg">
<path d="M23 5.5H26.5C26.7652 5.5 27.0196 5.60536 27.2071 5.79289C27.3946 5.98043 27.5 6.23478 27.5 6.5V10" stroke="black" stroke-width="2" stroke-linecap="round" stroke-linejoin="round"/>
<path d="M23 27.5H26.5C26.7652 27.5 27.0196 27.3946 27.2071 27.2071C27.3946 27.0196 27.5 26.7652 27.5 26.5V23" stroke="black" stroke-width="2" stroke-linecap="round" stroke-linejoin="round"/>
<path d="M10 27.5H6.5C6.23478 27.5 5.98043 27.3946 5.79289 27.2071C5.60536 27.0196 5.5 26.7652 5.5 26.5V23" stroke="black" stroke-width="2" stroke-linecap="round" stroke-linejoin="round"/>
<path d="M10 5.5H6.5C6.23478 5.5 5.98043 5.60536 5.79289 5.79289C5.60536 5.98043 5.5 6.23478 5.5 6.5V10" stroke="black" stroke-width="2" stroke-linecap="round" stroke-linejoin="round"/>
<path d="M16.5 18.5C18.7091 18.5 20.5 16.7091 20.5 14.5C20.5 12.2909 18.7091 10.5 16.5 10.5C14.2909 10.5 12.5 12.2909 12.5 14.5C12.5 16.7091 14.2909 18.5 16.5 18.5Z" stroke="black" stroke-width="2" stroke-linecap="round" stroke-linejoin="round"/>
<path d="M9.8623 22.5C10.5015 21.2942 11.4572 20.2853 12.6266 19.5816C13.796 18.878 15.135 18.5062 16.4998 18.5062C17.8646 18.5062 19.2036 18.878 20.373 19.5816C21.5424 20.2853 22.4981 21.2942 23.1373 22.5" stroke="black" stroke-width="2" stroke-linecap="round" stroke-linejoin="round"/>
</svg>
