<svg width="33" height="33" viewBox="0 0 33 33" fill="none" xmlns="http://www.w3.org/2000/svg">
<path d="M20.5 16.5L14.5 12.5V20.5L20.5 16.5Z" stroke="#CAB7E1" stroke-width="2" stroke-linecap="round" stroke-linejoin="round"/>
<path d="M3.5 16.5C3.5 20.225 3.8875 22.4 4.175 23.525C4.25427 23.8302 4.40418 24.1126 4.61262 24.3493C4.82106 24.5859 5.08221 24.7703 5.375 24.8875C9.5625 26.4875 16.5 26.45 16.5 26.45C16.5 26.45 23.4375 26.4875 27.625 24.8875C27.9178 24.7703 28.1789 24.5859 28.3874 24.3493C28.5958 24.1126 28.7457 23.8302 28.825 23.525C29.1125 22.4 29.5 20.225 29.5 16.5C29.5 12.775 29.1125 10.6 28.825 9.475C28.7457 9.16975 28.5958 8.88741 28.3874 8.65074C28.1789 8.41407 27.9178 8.2297 27.625 8.1125C23.4375 6.5125 16.5 6.55 16.5 6.55C16.5 6.55 9.5625 6.5125 5.375 8.1125C5.08221 8.2297 4.82106 8.41407 4.61262 8.65074C4.40418 8.88741 4.25427 9.16975 4.175 9.475C3.8875 10.6 3.5 12.775 3.5 16.5Z" stroke="#CAB7E1" stroke-width="2" stroke-linecap="round" stroke-linejoin="round"/>
</svg>
